<?xml version="1.0" standalone="no"?>
<!DOCTYPE svg PUBLIC "-//W3C//DTD SVG 20010904//EN"
 "http://www.w3.org/TR/2001/REC-SVG-20010904/DTD/svg10.dtd">
<svg version="1.0" xmlns="http://www.w3.org/2000/svg"
 width="500.000000pt" height="500.000000pt" viewBox="0 0 500.000000 500.000000"
 preserveAspectRatio="xMidYMid meet">
<metadata>
Created by potrace 1.14, written by Peter Selinger 2001-2017
</metadata>
<g transform="translate(0.000000,500.000000) scale(0.100000,-0.100000)"
fill="#000000" stroke="none">
<path d="M2373 4990 c-243 -44 -450 -201 -552 -421 -69 -147 -71 -170 -71
-774 l0 -535 -538 -1 c-295 0 -550 -3 -567 -5 -296 -40 -548 -259 -623 -540
-29 -108 -31 -287 -3 -396 65 -255 264 -455 530 -535 49 -15 128 -17 624 -20
431 -3 567 -7 567 -16 1 -7 2 -257 3 -557 3 -485 5 -552 21 -610 76 -278 282
-483 553 -549 109 -27 279 -23 383 9 249 75 431 254 509 501 33 103 36 168 36
702 l-1 507 543 1 c299 1 546 2 551 3 4 1 27 6 52 10 207 35 418 190 519 380
60 113 84 208 85 336 1 104 -16 228 -34 255 -4 6 -15 33 -25 60 -38 103 -143
235 -246 311 -75 55 -187 105 -294 131 -16 3 -280 8 -585 10 -305 2 -556 5
-557 7 -1 1 -3 241 -3 532 -1 486 -2 536 -20 618 -62 281 -265 495 -543 572
-66 18 -246 26 -314 14z"/>
</g>
</svg>
